<svg width="18" height="18" viewBox="0 0 18 18" fill="none" xmlns="http://www.w3.org/2000/svg">
<path d="M14.8333 2.33334H13.1666V1.50001C13.1666 1.27899 13.0788 1.06703 12.9225 0.910749C12.7663 0.754469 12.5543 0.666672 12.3333 0.666672C12.1123 0.666672 11.9003 0.754469 11.744 0.910749C11.5878 1.06703 11.5 1.27899 11.5 1.50001V2.33334H6.49996V1.50001C6.49996 1.27899 6.41216 1.06703 6.25588 0.910749C6.0996 0.754469 5.88764 0.666672 5.66663 0.666672C5.44561 0.666672 5.23365 0.754469 5.07737 0.910749C4.92109 1.06703 4.83329 1.27899 4.83329 1.50001V2.33334H3.16663C2.50358 2.33334 1.8677 2.59673 1.39886 3.06557C0.930018 3.53441 0.666626 4.1703 0.666626 4.83334V14.8333C0.666626 15.4964 0.930018 16.1323 1.39886 16.6011C1.8677 17.0699 2.50358 17.3333 3.16663 17.3333H14.8333C15.4963 17.3333 16.1322 17.0699 16.6011 16.6011C17.0699 16.1323 17.3333 15.4964 17.3333 14.8333V4.83334C17.3333 4.1703 17.0699 3.53441 16.6011 3.06557C16.1322 2.59673 15.4963 2.33334 14.8333 2.33334ZM15.6666 14.8333C15.6666 15.0544 15.5788 15.2663 15.4225 15.4226C15.2663 15.5789 15.0543 15.6667 14.8333 15.6667H3.16663C2.94561 15.6667 2.73365 15.5789 2.57737 15.4226C2.42109 15.2663 2.33329 15.0544 2.33329 14.8333V9.00001H15.6666V14.8333ZM15.6666 7.33334H2.33329V4.83334C2.33329 4.61232 2.42109 4.40036 2.57737 4.24408C2.73365 4.0878 2.94561 4.00001 3.16663 4.00001H4.83329V4.83334C4.83329 5.05435 4.92109 5.26631 5.07737 5.42259C5.23365 5.57887 5.44561 5.66667 5.66663 5.66667C5.88764 5.66667 6.0996 5.57887 6.25588 5.42259C6.41216 5.26631 6.49996 5.05435 6.49996 4.83334V4.00001H11.5V4.83334C11.5 5.05435 11.5878 5.26631 11.744 5.42259C11.9003 5.57887 12.1123 5.66667 12.3333 5.66667C12.5543 5.66667 12.7663 5.57887 12.9225 5.42259C13.0788 5.26631 13.1666 5.05435 13.1666 4.83334V4.00001H14.8333C15.0543 4.00001 15.2663 4.0878 15.4225 4.24408C15.5788 4.40036 15.6666 4.61232 15.6666 4.83334V7.33334Z" fill="#F26E26"/>
</svg>

